<svg xmlns="http://www.w3.org/2000/svg" id="Layer_2" viewBox="0 0 541.95 130.33"><defs><style>.cls-1{fill:#f7a74d;}.cls-2{isolation:isolate;}</style></defs><g><path class="cls-1" d="m47.42,89.98v40.35h-14v-40.2c4.57.67,9.46.6,14-.15Z"></path><path class="cls-1" d="m76.42,74.04v56.29h-14v-45.12c5.33-2.8,10.07-6.61,14-11.17Z"></path><path class="cls-1" d="m18.42,85.59v44.74H4.42v-55.46c3.97,4.4,8.71,8.05,14,10.72Z"></path></g><g><path class="cls-1" d="m40.34,0c-53.79.92-53.78,80.93,0,81.84,53.79-.92,53.78-80.93,0-81.84Zm0,66.21c-33.07-.15-33.07-50.44,0-50.58,33.07.15,33.07,50.44,0,50.58Z"></path><path class="cls-1" d="m40.34,25.29c20.44.09,20.44,31.17,0,31.26-20.44-.09-20.44-31.17,0-31.26Z"></path></g><g class="cls-2"><g class="cls-2"><path class="cls-1" d="m95.8,72.44c0-28.5,24.22-50.45,50.72-50.45,28.24,0,50.45,24.09,50.45,50.45,0,28.24-24.35,50.58-50.45,50.58-28.24,0-50.72-24.09-50.72-50.58Zm50.72,38.54c21.01,0,37.2-19.81,37.2-38.54,0-20.61-17.93-38.41-37.2-38.41-20.61,0-37.47,19-37.47,38.41,0,20.74,18.07,38.54,37.47,38.54Z"></path><path class="cls-1" d="m250.9,121.28h-37.74V23.19h33.59c12.58,0,23.82,10.3,23.82,23.69,0,5.35-1.74,10.17-4.68,14.32,9.5,4.82,16.73,15.52,16.73,28.1,0,17.26-14.18,32.12-31.72,31.98Zm-24.22-85.24v22.08h18.73c5.75,0,12.18-2.68,12.18-11.51,0-5.35-4.95-10.57-10.57-10.57h-20.34Zm23.82,72.66c8.16,0,17.4-6.02,17.4-19.14s-8.7-18.74-17.26-18.74h-23.95v37.87h23.82Z"></path><path class="cls-1" d="m471.43,63.34v39.88c-9.1,11.51-23.42,19.4-39.61,19.4-26.63,0-50.45-22.21-50.45-50.45,0-26.5,22.48-50.45,50.45-50.32,11.91,0,22.35,3.88,30.91,10.71l-5.75,13.11c-6.56-6.56-15.79-10.97-25.69-10.97-19.27,0-36.67,17.26-36.67,37.6s16.33,37.6,36.67,37.6c9.5,0,19-3.61,25.96-10.44v-23.42h-32.52l1.07-12.58c15.12,0,30.51-.13,45.63-.13Z"></path><path class="cls-1" d="m505.69,108.17h36.27l-1.34,13.11h-48.44V23.19h48.44l1.34,13.25h-36.27v39.08h30.91l-1.34,13.52h-29.57v19.14Z"></path></g></g><path class="cls-1" d="m328.66,20.93l-40.37,101.4h14.68c2.89-6.92,8.56-21.02,11.19-28h-.04l14.14-36.3c.39,1.04,25.01,63.28,25.41,64.3h15.09l-40.1-101.4h0Z"></path></svg>